<svg xmlns="http://www.w3.org/2000/svg" version="1.1" xmlns:xlink="http://www.w3.org/1999/xlink" xmlns:svgjs="http://svgjs.dev/svgjs" width="300"  viewBox="0 0 1000 60"><g transform="matrix(1,0,0,1,-0.6060606060606233,0.4554148358749188)"><svg viewBox="0 0 396 24" data-background-color="#ffffff" preserveAspectRatio="xMidYMid meet" height="60" width="1000" xmlns="http://www.w3.org/2000/svg" xmlns:xlink="http://www.w3.org/1999/xlink"><g id="tight-bounds" transform="matrix(1,0,0,1,0.2400000000000091,-0.18216593434996753)"><svg viewBox="0 0 395.52 24.364331868699917" height="24.364331868699917" width="395.52"><g><svg viewBox="0 0 395.52 24.364331868699917" height="24.364331868699917" width="395.52"><g><svg viewBox="0 0 395.52 24.364331868699917" height="24.364331868699917" width="395.52"><g><svg viewBox="0 0 395.52 24.364331868699917" height="24.364331868699917" width="395.52"><g><svg viewBox="0 0 395.52 24.364331868699917" height="24.364331868699917" width="395.52"><g transform="matrix(1,0,0,1,0,0)"><svg width="395.52" viewBox="0 -35.75 580.31 35.75" height="24.364331868699917" data-palette-color="white"><path d="M33.8-2.15L38.1-2.15 38.1 0 26 0 26-13.75 12.1-13.75 12.1 0 0 0 0-2.15 4.3-2.15 4.3-34.95 12.1-34.95 12.1-20.35 26-20.35 26-34.95 33.8-34.95 33.8-2.15ZM68.25-2.15L79.4-2.15 79.4 0 38.1 0 38.1-2.15 49.25-2.15Q45.15-4.5 42.77-8.6 40.4-12.7 40.4-17.7L40.4-17.7Q40.4-25.4 45.7-30.58 51-35.75 58.75-35.75 66.5-35.75 71.8-30.58 77.1-25.4 77.1-17.7L77.1-17.7Q77.1-12.7 74.7-8.6 72.3-4.5 68.25-2.15L68.25-2.15ZM69.15-17.68Q69.15-22.35 66.15-25.65 63.15-28.95 58.77-28.95 54.4-28.95 51.4-25.65 48.4-22.35 48.4-17.68 48.4-13 51.4-9.73 54.4-6.45 58.77-6.45 63.15-6.45 66.15-9.73 69.15-13 69.15-17.68ZM104.6-2.15L111-2.15 111 0 79.1 0 79.1-2.15 85.9-2.15Q83.15-3.55 80.9-5.75L80.9-5.75 85.55-11.45Q91.2-6.5 96-6.5L96-6.5Q98.15-6.5 99.37-7.43 100.6-8.35 100.6-9.93 100.6-11.5 99.3-12.43 98-13.35 94.15-14.3L94.15-14.3Q88.05-15.75 85.22-18.07 82.4-20.4 82.4-25.38 82.4-30.35 85.97-33.05 89.55-35.75 94.9-35.75L94.9-35.75Q98.4-35.75 101.9-34.55 105.4-33.35 108-31.15L108-31.15 104.05-25.45Q99.5-28.9 94.65-28.9L94.65-28.9Q92.7-28.9 91.57-27.98 90.45-27.05 90.45-25.53 90.45-24 91.82-23.1 93.2-22.2 98.17-20.98 103.15-19.75 105.9-17.3 108.65-14.85 108.65-10.5L108.65-10.5Q108.65-5.1 104.6-2.15L104.6-2.15ZM123.09-2.15L144.84-2.15 144.84 0 110.44 0 110.44-2.15 115.29-2.15 115.29-34.95 127.64-34.95Q135.69-34.95 139.37-31.83 143.04-28.7 143.04-22.23 143.04-15.75 139.27-12.75 135.49-9.75 127.74-9.75L127.74-9.75 123.09-9.75 123.09-2.15ZM128.34-16.5Q132.24-16.5 133.64-18.07 135.04-19.65 135.04-22.68 135.04-25.7 133.22-26.98 131.39-28.25 127.54-28.25L127.54-28.25 123.09-28.25 123.09-16.5 128.34-16.5ZM156.94-2.15L161.24-2.15 161.24 0 144.84 0 144.84-2.15 149.14-2.15 149.14-34.95 156.94-34.95 156.94-2.15ZM180.34-2.15L191.64-2.15 191.64 0 161.24 0 161.24-2.15 172.54-2.15 172.54-28.2 162.64-28.2 162.64-34.95 190.24-34.95 190.24-28.2 180.34-28.2 180.34-2.15ZM225.64-2.15L231.44-2.15 231.44 0 218.29 0 215.04-7.55 200.39-7.55 197.14 0 183.99 0 183.99-2.15 189.74-2.15 203.94-34.95 211.49-34.95 225.64-2.15ZM212.09-14.4L207.74-24.55 203.34-14.4 212.09-14.4ZM253.33-2.15L258.18-2.15 258.18 0 225.78 0 225.78-2.15 230.63-2.15 230.63-34.95 238.43-34.95 238.43-6.95 253.33-6.95 253.33-2.15ZM254.73-2.15L267.93-2.15 267.93 0 254.73 0 254.73-2.15ZM301.73-2.15L306.03-2.15 306.03 0 293.93 0 293.93-13.75 280.03-13.75 280.03 0 267.93 0 267.93-2.15 272.23-2.15 272.23-34.95 280.03-34.95 280.03-20.35 293.93-20.35 293.93-34.95 301.73-34.95 301.73-2.15ZM342.58-2.15L348.38-2.15 348.38 0 335.23 0 331.98-7.55 317.33-7.55 314.08 0 300.93 0 300.93-2.15 306.68-2.15 320.88-34.95 328.43-34.95 342.58-2.15ZM329.03-14.4L324.68-24.55 320.28-14.4 329.03-14.4ZM342.72-2.15L347.57-2.15 347.57-34.95 354.87-34.95 372.02-12.45 372.02-34.95 379.82-34.95 379.82-2.15 384.67-2.15 384.67 0 372.02 0 355.37-21.9 355.37 0 342.72 0 342.72-2.15ZM411.42-2.15L423.22-2.15 423.22 0 383.57 0 383.57-2.15 388.42-2.15 388.42-34.95 400.77-34.95Q410.12-34.95 415.12-30.38 420.12-25.8 420.12-17.5L420.12-17.5Q420.12-6.3 411.42-2.15L411.42-2.15ZM401.17-6.9Q406.52-6.9 409.4-9.6 412.27-12.3 412.27-17.45 412.27-22.6 409.4-25.38 406.52-28.15 400.57-28.15L400.57-28.15 396.22-28.15 396.22-6.9 401.17-6.9ZM423.22-2.15L436.42-2.15 436.42 0 423.22 0 423.22-2.15ZM455.52-2.15L466.82-2.15 466.82 0 436.42 0 436.42-2.15 447.72-2.15 447.72-28.2 437.82-28.2 437.82-34.95 465.42-34.95 465.42-28.2 455.52-28.2 455.52-2.15ZM496.01-2.15L507.16-2.15 507.16 0 465.86 0 465.86-2.15 477.01-2.15Q472.91-4.5 470.54-8.6 468.16-12.7 468.16-17.7L468.16-17.7Q468.16-25.4 473.46-30.58 478.76-35.75 486.51-35.75 494.26-35.75 499.56-30.58 504.86-25.4 504.86-17.7L504.86-17.7Q504.86-12.7 502.46-8.6 500.06-4.5 496.01-2.15L496.01-2.15ZM496.91-17.68Q496.91-22.35 493.91-25.65 490.91-28.95 486.54-28.95 482.16-28.95 479.16-25.65 476.16-22.35 476.16-17.68 476.16-13 479.16-9.73 482.16-6.45 486.54-6.45 490.91-6.45 493.91-9.73 496.91-13 496.91-17.68ZM537.31-2.15L548.46-2.15 548.46 0 507.16 0 507.16-2.15 518.31-2.15Q514.21-4.5 511.84-8.6 509.46-12.7 509.46-17.7L509.46-17.7Q509.46-25.4 514.76-30.58 520.06-35.75 527.81-35.75 535.56-35.75 540.86-30.58 546.16-25.4 546.16-17.7L546.16-17.7Q546.16-12.7 543.76-8.6 541.36-4.5 537.31-2.15L537.31-2.15ZM538.21-17.68Q538.21-22.35 535.21-25.65 532.21-28.95 527.84-28.95 523.46-28.95 520.46-25.65 517.46-22.35 517.46-17.68 517.46-13 520.46-9.73 523.46-6.45 527.84-6.45 532.21-6.45 535.21-9.73 538.21-13 538.21-17.68ZM575.46-2.15L580.31-2.15 580.31 0 547.91 0 547.91-2.15 552.76-2.15 552.76-34.95 560.56-34.95 560.56-6.95 575.46-6.95 575.46-2.15Z" opacity="1" transform="matrix(1,0,0,1,0,0)" fill="white" class="undefined-text-0" data-fill-palette-color="primary" id="text-0"></path></svg></g></svg></g></svg></g></svg></g></svg></g><defs></defs></svg><rect width="100" height="100" fill="none" stroke="none" visibility="hidden"></rect></g></svg></g></svg>